<svg width="67" height="53" viewBox="0 0 67 53" fill="none" xmlns="http://www.w3.org/2000/svg">
<g clip-path="url(#clip0_6223_2228)">
<path d="M12.1882 52.1633V48.7138C12.1882 47.3915 11.3834 46.5291 10.0036 46.5291C9.31368 46.5291 8.56629 46.7591 8.04887 47.5065C7.64644 46.8741 7.07152 46.5291 6.20915 46.5291C5.63424 46.5291 5.05934 46.7016 4.59941 47.334V46.6441H3.39209V52.1633H4.59941V49.1162C4.59941 48.1389 5.11682 47.679 5.9217 47.679C6.72657 47.679 7.12901 48.1964 7.12901 49.1162V52.1633H8.33633V49.1162C8.33633 48.1389 8.91123 47.679 9.65862 47.679C10.4635 47.679 10.8659 48.1964 10.8659 49.1162V52.1633H12.1882ZM30.068 46.6441H28.1133V44.9769H26.906V46.6441H25.8136V47.7365H26.906V50.2661C26.906 51.5309 27.4234 52.2782 28.8032 52.2782C29.3206 52.2782 29.8955 52.1058 30.2979 51.8758L29.953 50.841C29.608 51.0709 29.2056 51.1284 28.9181 51.1284C28.3432 51.1284 28.1133 50.7835 28.1133 50.2086V47.7365H30.068V46.6441ZM40.3014 46.5291C39.6115 46.5291 39.1516 46.8741 38.8641 47.334V46.6441H37.6568V52.1633H38.8641V49.0588C38.8641 48.1389 39.2665 47.6215 40.0139 47.6215C40.2439 47.6215 40.5314 47.679 40.7613 47.7365L41.1063 46.5866C40.8763 46.5291 40.5313 46.5291 40.3014 46.5291ZM24.8363 47.104C24.2614 46.7016 23.4565 46.5291 22.5941 46.5291C21.2143 46.5291 20.2945 47.219 20.2945 48.3114C20.2945 49.2312 20.9844 49.7487 22.1917 49.9211L22.7666 49.9786C23.399 50.0936 23.7439 50.2661 23.7439 50.5535C23.7439 50.956 23.284 51.2434 22.4791 51.2434C21.6743 51.2434 21.0419 50.956 20.6394 50.6685L20.0645 51.5884C20.6969 52.0483 21.5593 52.2782 22.4217 52.2782C24.0314 52.2782 24.9513 51.5309 24.9513 50.496C24.9513 49.5187 24.2039 49.0013 23.054 48.8288L22.4791 48.7713C21.9617 48.7138 21.5593 48.5988 21.5593 48.2539C21.5593 47.8514 21.9617 47.6215 22.5941 47.6215C23.284 47.6215 23.9739 47.9089 24.3189 48.0814L24.8363 47.104ZM56.9163 46.5291C56.2264 46.5291 55.7665 46.8741 55.479 47.334V46.6441H54.2717V52.1633H55.479V49.0588C55.479 48.1389 55.8815 47.6215 56.6289 47.6215C56.8588 47.6215 57.1463 47.679 57.3763 47.7365L57.7212 46.5866C57.4912 46.5291 57.1463 46.5291 56.9163 46.5291ZM41.5087 49.4037C41.5087 51.0709 42.6585 52.2782 44.4408 52.2782C45.2456 52.2782 45.8205 52.1058 46.3954 51.6459L45.8205 50.6685C45.3606 51.0135 44.9007 51.1859 44.3833 51.1859C43.4059 51.1859 42.716 50.496 42.716 49.4037C42.716 48.3689 43.4059 47.679 44.3833 47.6215C44.9007 47.6215 45.3606 47.794 45.8205 48.1389L46.3954 47.1615C45.8205 46.7016 45.2456 46.5291 44.4408 46.5291C42.6585 46.5291 41.5087 47.7365 41.5087 49.4037ZM52.662 49.4037V46.6441H51.4547V47.334C51.0522 46.8166 50.4773 46.5291 49.7299 46.5291C48.1777 46.5291 46.9704 47.7365 46.9704 49.4037C46.9704 51.0709 48.1777 52.2782 49.7299 52.2782C50.5348 52.2782 51.1097 51.9908 51.4547 51.4734V52.1633H52.662V49.4037ZM48.2352 49.4037C48.2352 48.4263 48.8676 47.6215 49.9024 47.6215C50.8798 47.6215 51.5696 48.3689 51.5696 49.4037C51.5696 50.381 50.8798 51.1859 49.9024 51.1859C48.8676 51.1284 48.2352 50.381 48.2352 49.4037ZM33.8049 46.5291C32.1951 46.5291 31.0453 47.679 31.0453 49.4037C31.0453 51.1284 32.1951 52.2782 33.8624 52.2782C34.6673 52.2782 35.4721 52.0483 36.1045 51.5309L35.5296 50.6685C35.0697 51.0135 34.4948 51.2434 33.9199 51.2434C33.1725 51.2434 32.4251 50.8985 32.2526 49.9211H36.3345C36.3345 49.7487 36.3345 49.6337 36.3345 49.4612C36.392 47.679 35.3572 46.5291 33.8049 46.5291ZM33.8049 47.564C34.5523 47.564 35.0697 48.0239 35.1847 48.8863H32.3101C32.4251 48.1389 32.9425 47.564 33.8049 47.564ZM63.7578 49.4037V44.4595H62.5505V47.334C62.148 46.8166 61.5731 46.5291 60.8257 46.5291C59.2735 46.5291 58.0662 47.7365 58.0662 49.4037C58.0662 51.0709 59.2735 52.2782 60.8257 52.2782C61.6306 52.2782 62.2055 51.9908 62.5505 51.4734V52.1633H63.7578V49.4037ZM59.3309 49.4037C59.3309 48.4263 59.9633 47.6215 60.9982 47.6215C61.9755 47.6215 62.6654 48.3689 62.6654 49.4037C62.6654 50.381 61.9755 51.1859 60.9982 51.1859C59.9633 51.1284 59.3309 50.381 59.3309 49.4037ZM18.9722 49.4037V46.6441H17.7649V47.334C17.3624 46.8166 16.7875 46.5291 16.0401 46.5291C14.4879 46.5291 13.2806 47.7365 13.2806 49.4037C13.2806 51.0709 14.4879 52.2782 16.0401 52.2782C16.845 52.2782 17.4199 51.9908 17.7649 51.4734V52.1633H18.9722V49.4037ZM14.4879 49.4037C14.4879 48.4263 15.1203 47.6215 16.1551 47.6215C17.1325 47.6215 17.8224 48.3689 17.8224 49.4037C17.8224 50.381 17.1325 51.1859 16.1551 51.1859C15.1203 51.1284 14.4879 50.381 14.4879 49.4037Z" fill="black"/>
<path d="M42.5418 4.73291H24.4321V37.2729H42.5418V4.73291Z" fill="#FF5F00"/>
<path d="M25.5836 21.003C25.5836 14.3915 28.6881 8.52739 33.4598 4.73298C29.9529 1.9734 25.5261 0.306152 20.6968 0.306152C9.25607 0.306152 0 9.56223 0 21.003C0 32.4437 9.25607 41.6998 20.6968 41.6998C25.5261 41.6998 29.9529 40.0325 33.4598 37.273C28.6881 33.536 25.5836 27.6144 25.5836 21.003Z" fill="#EB001B"/>
<path d="M66.9779 21.003C66.9779 32.4437 57.7218 41.6998 46.2811 41.6998C41.4518 41.6998 37.025 40.0325 33.5181 37.273C38.3473 33.4785 41.3944 27.6144 41.3944 21.003C41.3944 14.3915 38.2898 8.52739 33.5181 4.73298C37.025 1.9734 41.4518 0.306152 46.2811 0.306152C57.7218 0.306152 66.9779 9.61972 66.9779 21.003Z" fill="#F79E1B"/>
</g>
<defs>
<clipPath id="clip0_6223_2228">
<rect width="66.9772" height="51.972" fill="white" transform="translate(0 0.306152)"/>
</clipPath>
</defs>
</svg>
