<svg width="107" height="38" viewBox="0 0 107 38" fill="none" xmlns="http://www.w3.org/2000/svg">
<path d="M13.0507 0.307251H4.76953C4.20275 0.307251 3.72085 0.84992 3.63243 1.58735L0.28311 29.5702C0.216495 30.1222 0.541084 30.6201 0.96604 30.6201H4.91963C5.48631 30.6201 5.9682 30.0777 6.05663 29.3389L6.95993 21.7915C7.04717 21.0526 7.53025 20.51 8.09575 20.51H10.7173C16.1724 20.51 19.3207 17.0315 20.143 10.1383C20.5134 7.12244 20.1586 4.75295 19.087 3.09349C17.91 1.27107 15.8224 0.307251 13.0507 0.307251ZM14.0062 10.5277C13.5533 14.4434 11.2828 14.4434 9.08748 14.4434H7.83787L8.71453 7.13053C8.76665 6.68847 9.05719 6.36297 9.39629 6.36297H9.96898C11.4644 6.36297 12.8752 6.36297 13.6041 7.48619C14.0388 8.15647 14.1721 9.15211 14.0062 10.5277Z" fill="#283B82"/>
<path d="M37.8048 10.4015H33.8393C33.5015 10.4015 33.2097 10.727 33.1574 11.169L32.9821 12.6306L32.7047 12.1008C31.8462 10.4588 29.9317 9.91004 28.0209 9.91004C23.6388 9.91004 19.8959 14.2837 19.167 20.419C18.788 23.4794 19.3268 26.4059 20.6442 28.4466C21.8527 30.3231 23.5818 31.105 25.6392 31.105C29.1702 31.105 31.1282 28.1133 31.1282 28.1133L30.9513 29.5653C30.8846 30.1206 31.2093 30.6184 31.632 30.6184H35.2038C35.7718 30.6184 36.2513 30.0759 36.341 29.3372L38.4842 11.4514C38.5521 10.9009 38.2287 10.4015 37.8048 10.4015ZM32.2772 20.5722C31.8947 23.5576 30.0964 25.5619 27.8031 25.5619C26.6516 25.5619 25.7312 25.0751 25.1402 24.1528C24.5542 23.2369 24.3314 21.9333 24.5179 20.4812C24.875 17.5213 26.7036 15.4518 28.9618 15.4518C30.088 15.4518 31.0034 15.9448 31.6064 16.8749C32.2108 17.8148 32.4503 19.1265 32.2772 20.5722Z" fill="#283B82"/>
<path d="M58.9251 10.4016H54.9401C54.5599 10.4016 54.2027 10.6505 53.9872 11.0671L48.4909 21.7356L46.1612 11.4835C46.0147 10.842 45.5655 10.4016 45.0569 10.4016H41.1409C40.6649 10.4016 40.3345 11.0143 40.4858 11.6047L44.8753 28.5793L40.7486 36.2561C40.4239 36.8607 40.7508 37.6924 41.3117 37.6924H45.2919C45.6696 37.6924 46.0233 37.4497 46.2375 37.0412L59.4918 11.8298C59.8091 11.2265 59.4834 10.4016 58.9251 10.4016Z" fill="#283B82"/>
<path d="M72.1191 0.307251H63.8366C63.2712 0.307251 62.7892 0.84992 62.7007 1.58735L59.3514 29.5702C59.285 30.1222 59.6094 30.6201 60.0321 30.6201H64.2823C64.6769 30.6201 65.015 30.2405 65.0766 29.7235L66.0271 21.7915C66.1142 21.0526 66.5975 20.51 67.1629 20.51H69.7834C75.2395 20.51 78.3867 17.0315 79.21 10.1383C79.5819 7.12244 79.2247 4.75295 78.153 3.09349C76.9772 1.27107 74.8908 0.307251 72.1191 0.307251ZM73.0746 10.5277C72.6228 14.4434 70.3526 14.4434 68.1558 14.4434H66.9075L67.7855 7.13053C67.8375 6.68847 68.1255 6.36297 68.4658 6.36297H69.0386C70.533 6.36297 71.9447 6.36297 72.6736 7.48619C73.1084 8.15647 73.2403 9.15211 73.0746 10.5277Z" fill="#469BDB"/>
<path d="M96.8721 10.4015H92.9089C92.5686 10.4015 92.279 10.727 92.2283 11.169L92.0527 12.6306L91.7743 12.1008C90.9158 10.4588 89.0025 9.91004 87.0918 9.91004C82.7094 9.91004 78.968 14.2837 78.2389 20.419C77.8612 23.4794 78.3975 26.4059 79.7151 28.4466C80.926 30.3231 82.6526 31.105 84.7098 31.105C88.2408 31.105 90.1988 28.1133 90.1988 28.1133L90.0219 29.5653C89.9555 30.1206 90.2799 30.6184 90.7051 30.6184H94.2759C94.8414 30.6184 95.3234 30.0759 95.4118 29.3372L97.5563 11.4514C97.6215 10.9009 97.2971 10.4015 96.8721 10.4015ZM91.3443 20.5722C90.964 23.5576 89.1634 25.5619 86.8702 25.5619C85.7209 25.5619 84.7983 25.0751 84.2073 24.1528C83.6214 23.2369 83.4009 21.9333 83.5851 20.4812C83.9446 17.5213 85.7707 15.4518 88.0291 15.4518C89.1551 15.4518 90.0704 15.9448 90.6735 16.8749C91.2801 17.8148 91.5199 19.1265 91.3443 20.5722Z" fill="#469BDB"/>
<path d="M101.547 1.07496L98.1483 29.5702C98.0819 30.1222 98.4063 30.6201 98.8289 30.6201H102.246C102.814 30.6201 103.296 30.0777 103.383 29.3389L106.735 1.35761C106.801 0.805294 106.477 0.305908 106.054 0.305908H102.228C101.89 0.307241 101.599 0.633173 101.547 1.07496Z" fill="#469BDB"/>
</svg>
