<svg width="112" height="47" viewBox="0 0 112 47" fill="none" xmlns="http://www.w3.org/2000/svg">
<g clip-path="url(#clip0_6223_2266)">
<path d="M8.55682 18.353C8.55682 17.1485 9.54527 16.685 11.1827 16.685C13.5302 16.685 16.4955 17.3956 18.8432 18.6621V11.4028C16.2794 10.3835 13.7465 9.98189 11.1827 9.98189C4.91185 9.98189 0.741699 13.2563 0.741699 18.724C0.741699 27.2494 12.4798 25.8904 12.4798 29.5664C12.4798 30.9871 11.2444 31.4506 9.51443 31.4506C6.95066 31.4506 3.67622 30.4002 1.08139 28.9793V36.3312C3.95423 37.5668 6.85792 38.0917 9.51443 38.0917C15.9395 38.0917 20.3568 34.9103 20.3568 29.3809C20.326 20.1757 8.55682 21.8127 8.55682 18.353ZM29.4384 3.80399L21.9013 5.41015L21.8705 30.153C21.8705 34.725 25.2993 38.0917 29.8711 38.0917C32.404 38.0917 34.2573 37.6285 35.2766 37.0724V30.8018C34.2884 31.2034 29.4076 32.6243 29.4076 28.0525V17.0866H35.2766V10.5071H29.4076L29.4384 3.80399ZM44.8836 12.7928L44.3893 10.5071H37.717V37.5357H45.4396V19.2181C47.2619 16.8396 50.351 17.2721 51.3087 17.6117V10.5071C50.3202 10.1363 46.7061 9.45671 44.8836 12.7928ZM53.1928 10.5071H60.9463V37.5357H53.1928V10.5071ZM53.1928 8.15941L60.9463 6.49135V0.220703L53.1928 1.85792V8.15919V8.15941ZM77.0708 9.98189C74.0436 9.98189 72.0975 11.4028 71.0165 12.3915L70.6147 10.4762H63.8191V46.4937L71.5415 44.8567L71.5725 36.1148C72.6846 36.918 74.3216 38.0609 77.04 38.0609C82.5694 38.0609 87.6044 33.6127 87.6044 23.8207C87.5735 14.8625 82.4766 9.98189 77.0708 9.98189ZM75.2175 31.2651C73.395 31.2651 72.3136 30.6165 71.5725 29.8133L71.5415 18.353C72.3447 17.4573 73.4567 16.8396 75.2175 16.8396C78.0285 16.8396 79.9745 19.9903 79.9745 24.0368C79.9745 28.1761 78.0593 31.2651 75.2175 31.2651ZM111.946 24.1296C111.946 16.2217 108.115 9.98189 100.794 9.98189C93.4424 9.98189 88.9942 16.2219 88.9942 24.0679C88.9942 33.3656 94.2458 38.0609 101.783 38.0609C105.459 38.0609 108.239 37.2269 110.339 36.0531V29.875C108.239 30.9254 105.829 31.5741 102.771 31.5741C99.7749 31.5741 97.1184 30.5238 96.7787 26.8788H111.884C111.884 26.477 111.946 24.8708 111.946 24.1296ZM96.686 21.195C96.686 17.7045 98.8175 16.2525 100.764 16.2525C102.648 16.2525 104.656 17.7045 104.656 21.195H96.686Z" fill="#154444" fill-opacity="0.86"/>
</g>
<defs>
<clipPath id="clip0_6223_2266">
<rect width="111.204" height="46.4833" fill="white" transform="translate(0.741699 0.218994)"/>
</clipPath>
</defs>
</svg>
