<svg xmlns="http://www.w3.org/2000/svg">

  <symbol viewBox="0 0 25 25" id="search-icon">
    <path
      d="M10.9158 0.787109C5.08813 0.787109 0.34668 5.53196 0.34668 11.3638C0.34668 17.1959 5.08813 21.9404 10.9158 21.9404C16.7437 21.9404 21.4849 17.1959 21.4849 11.3638C21.4849 5.53196 16.7437 0.787109 10.9158 0.787109ZM10.9158 19.9879C6.16391 19.9879 2.2979 16.1191 2.2979 11.3638C2.2979 6.60855 6.16391 2.73972 10.9158 2.73972C15.6676 2.73972 19.5336 6.60851 19.5336 11.3638C19.5336 16.119 15.6676 19.9879 10.9158 19.9879Z" />
    <path
      d="M24.0607 23.138L18.4671 17.5405C18.086 17.159 17.4688 17.159 17.0876 17.5405C16.7065 17.9215 16.7065 18.5399 17.0876 18.921L22.6811 24.5185C22.8717 24.7092 23.1211 24.8045 23.3709 24.8045C23.6203 24.8045 23.8701 24.7092 24.0607 24.5185C24.4418 24.1374 24.4418 23.5191 24.0607 23.138Z" />
  </symbol>

  <symbol viewBox="0 0 44 51" id="security-icon">
    <path
      d="M43.239 14.3876L43.2374 14.3486C43.2157 13.8684 43.2012 13.3603 43.1924 12.7949C43.1516 10.038 40.9601 7.75763 38.2028 7.60352C32.4541 7.2827 28.0069 5.40816 24.2071 1.70448L24.1747 1.67359C22.9353 0.53719 21.0657 0.53719 19.8259 1.67359L19.7935 1.70448C15.9937 5.40816 11.5465 7.2827 5.7978 7.6039C3.04093 7.75763 0.849011 10.038 0.808194 12.7953C0.799802 13.3568 0.784925 13.8649 0.763181 14.3486L0.760892 14.4391C0.649122 20.3011 0.510267 27.5967 2.9509 34.2186C4.29291 37.8601 6.32538 41.0255 8.99146 43.6275C12.028 46.5908 16.0051 48.9433 20.8124 50.6194C20.9688 50.674 21.1313 50.7183 21.2969 50.7514C21.5303 50.798 21.7653 50.8212 22.0003 50.8212C22.2353 50.8212 22.4707 50.798 22.7037 50.7514C22.8693 50.7183 23.0329 50.6736 23.1901 50.6187C27.9916 48.9395 31.9646 46.5858 34.9985 43.6229C37.6634 41.0202 39.6959 37.854 41.039 34.2117C43.4888 27.57 43.3503 20.2606 43.239 14.3876ZM38.2863 33.1966C35.7122 40.176 30.4575 44.9691 22.2219 47.8492C22.1926 47.8591 22.1613 47.8679 22.1289 47.8744C22.0438 47.8912 21.9572 47.8912 21.871 47.874C21.8389 47.8675 21.8077 47.8591 21.7787 47.8492C13.5344 44.9745 8.27621 40.184 5.70396 33.2043C3.45444 27.1004 3.58185 20.4033 3.69439 14.4951L3.69515 14.4623C3.71804 13.9546 3.7333 13.4228 3.74169 12.8384C3.76 11.6143 4.73503 10.6015 5.96145 10.5332C9.21462 10.3516 12.0726 9.72296 14.6986 8.61136C17.3212 7.50128 19.6505 5.9365 21.8187 3.82774C21.929 3.73466 22.072 3.73428 22.1819 3.82774C24.3505 5.9365 26.6798 7.50128 29.302 8.61136C31.928 9.72296 34.786 10.3516 38.0395 10.5332C39.266 10.6015 40.241 11.6143 40.2589 12.8388C40.2677 13.4263 40.283 13.958 40.3058 14.4623C40.418 20.3774 40.5424 27.0798 38.2863 33.1966Z" />
    <path
      d="M21.9993 13.3613C15.1283 13.3613 9.53857 18.9514 9.53857 25.822C9.53857 32.6931 15.1283 38.2831 21.9993 38.2831C28.8699 38.2831 34.46 32.6931 34.46 25.822C34.46 18.9514 28.8699 13.3613 21.9993 13.3613ZM21.9993 35.3489C16.7461 35.3489 12.4725 31.0753 12.4725 25.822C12.4725 20.5688 16.7461 16.2952 21.9993 16.2952C27.2521 16.2952 31.5257 20.5688 31.5257 25.822C31.5257 31.0753 27.2521 35.3489 21.9993 35.3489Z" />
    <path
      d="M25.5806 21.9537L19.7929 27.7414L18.222 26.1705C17.6491 25.5975 16.7202 25.5975 16.1472 26.1705C15.5746 26.7434 15.5746 27.6723 16.1472 28.2449L18.7557 30.8534C19.0422 31.1399 19.4176 31.2829 19.7929 31.2829C20.1683 31.2829 20.5437 31.1399 20.8301 30.8534L27.6554 24.0281C28.228 23.4552 28.228 22.5263 27.6554 21.9537C27.0824 21.3803 26.1535 21.3803 25.5806 21.9537Z" />
  </symbol>

  <symbol viewBox="0 0 50 50" id="check-mark-icon">
    <path
      d="M47.3217 17.5378C46.6619 15.4948 46.9432 12.4281 45.2283 10.0602C43.5 7.67372 40.494 6.99539 38.7967 5.75399C37.1172 4.52567 35.5547 1.85272 32.7296 0.930843C29.9842 0.0349447 27.1768 1.25067 25 1.25067C22.8235 1.25067 20.0163 0.0346518 17.2704 0.930746C14.4458 1.85243 12.882 4.52596 11.2036 5.7537C9.50811 6.99364 6.4999 7.67381 4.77187 10.0599C3.0585 12.4259 3.33691 15.4996 2.67832 17.5377C2.05156 19.4774 0 21.8055 0 24.8203C0 27.837 2.04922 30.156 2.67832 32.1028C3.33809 34.1458 3.05684 37.2125 4.77168 39.5804C6.4999 41.967 9.50576 42.6452 11.2033 43.8867C12.8825 45.1148 14.4453 47.788 17.2704 48.7098C20.014 49.6051 22.8258 48.3899 25 48.3899C27.1712 48.3899 29.9896 49.6038 32.7296 48.7099C35.5543 47.7882 37.1171 45.1152 38.7964 43.8869C40.4919 42.647 43.5001 41.9668 45.2281 39.5807C46.9416 37.2146 46.663 34.1412 47.3217 32.1029C47.9484 30.1631 50 27.835 50 24.8203C50 21.8038 47.9513 19.4854 47.3217 17.5378ZM43.6048 30.9017C42.8357 33.2821 43.0372 35.9461 42.0646 37.2892C41.0788 38.6503 38.4891 39.272 36.4907 40.7337C34.5143 42.1791 33.129 44.4704 31.5179 44.9961C29.9937 45.4935 27.5097 44.4835 25.0001 44.4835C22.4722 44.4835 20.0138 45.4957 18.4822 44.9961C16.8713 44.4704 15.488 42.1807 13.5094 40.7336C11.5229 39.2808 8.91836 38.6463 7.93545 37.2891C6.96592 35.9504 7.15977 33.268 6.39541 30.9018C5.64619 28.5836 3.90625 26.5763 3.90625 24.8203C3.90625 23.0626 5.64463 21.0622 6.39522 18.7389C7.16426 16.3586 6.96279 13.6944 7.93545 12.3514C8.92061 10.9912 11.5123 10.3675 13.5094 8.90692C15.4921 7.45682 16.8687 5.17098 18.482 4.64452C20.005 4.14764 22.4971 5.15711 24.9999 5.15711C27.5324 5.15711 29.9847 4.14422 31.5178 4.64452C33.1285 5.1701 34.513 7.46073 36.4907 8.90702C38.477 10.3598 41.0816 10.9943 42.0646 12.3514C43.0343 13.6904 42.8394 16.3701 43.6046 18.7387V18.7388C44.3538 21.057 46.0938 23.0643 46.0938 24.8203C46.0938 26.578 44.3554 28.5784 43.6048 30.9017ZM33.9983 18.5513C34.7611 19.314 34.7611 20.5507 33.9983 21.3134L24.2224 31.0893C23.4596 31.8521 22.2229 31.852 21.4602 31.0893L16.0018 25.6309C15.239 24.8682 15.2389 23.6315 16.0017 22.8688C16.7645 22.1061 18.0013 22.106 18.7638 22.8688L22.8412 26.9462L31.236 18.5514C31.9988 17.7886 33.2355 17.7886 33.9983 18.5513Z" />
  </symbol>

  <symbol viewBox="0 0 50 51" id="truck-icon">
    <path
      d="M40.6901 20.7183H35.8789V17.4761C35.8789 16.6671 35.223 16.0112 34.4141 16.0112H1.46484C0.655859 16.0112 0 16.6671 0 17.4761V44.1492C0 44.9582 0.655859 45.6141 1.46484 45.6141H6.45312C8.04727 51.8524 16.851 51.8482 18.4427 45.6141H31.5572C33.1514 51.8524 41.9551 51.8482 43.5468 45.6141H48.5352C49.3441 45.6141 50 44.9582 50 44.1492V30.0281C50 24.8946 45.8235 20.7183 40.6901 20.7183ZM12.4479 47.3914C10.6602 47.3914 9.20576 45.9369 9.20576 44.1492C9.38379 39.848 15.5128 39.8493 15.6901 44.1492C15.6901 45.9369 14.2356 47.3914 12.4479 47.3914ZM32.9492 40.0433C32.2866 40.7853 31.8009 41.6876 31.5572 42.6843H18.4427C16.8485 36.446 8.04482 36.4502 6.45312 42.6843H2.92969V18.9408H32.9492V40.0433ZM37.5521 47.3914C35.7643 47.3914 34.3099 45.9369 34.3099 44.1492C34.4879 39.848 40.6169 39.8493 40.7942 44.1492C40.7942 45.9369 39.3398 47.3914 37.5521 47.3914ZM47.0703 42.6844H43.5484C42.8891 39.9859 40.4508 37.9773 37.5521 37.9773H35.8789V23.6479H39.2253V33.1662C39.2253 33.9752 39.8812 34.6311 40.6901 34.6311H47.0703V42.6844ZM47.0703 31.7013H42.155V23.8176C44.9692 24.4813 47.0703 27.0141 47.0703 30.0281V31.7013Z" />
    <path
      d="M35.9828 12.6648H39.9053C41.8489 12.5874 41.8474 9.81177 39.9053 9.73511H37.712L38.0082 7.95776H39.9053C41.8489 7.88032 41.8474 5.10474 39.9053 5.02808H38.4964L38.7926 3.25073H41.4743C43.4178 3.17329 43.4164 0.397705 41.4743 0.321045H37.5517C36.8356 0.321045 36.2245 0.838721 36.1068 1.54507L34.5378 10.9591C34.389 11.8522 35.0789 12.6648 35.9828 12.6648Z" />
    <path
      d="M26.5691 12.6648H30.4917C32.4352 12.5874 32.4337 9.81177 30.4917 9.73511H28.2983L28.5945 7.95776H30.4917C32.4352 7.88032 32.4337 5.10474 30.4917 5.02808H29.0829L29.3792 3.25073H32.0607C34.0043 3.17329 34.0028 0.397705 32.0607 0.321045H28.1382C27.4221 0.321045 26.811 0.838721 26.6933 1.54507L25.1243 10.9591C24.9754 11.8522 25.6653 12.6648 26.5691 12.6648Z" />
    <path
      d="M15.345 12.6449C16.4823 12.8344 16.9626 11.849 17.0307 11.4408L17.2709 9.99956L20.1548 12.3377C20.8214 12.8781 21.7374 12.7119 22.2153 12.1224C22.7248 11.494 22.6284 10.5715 21.9999 10.0621L20.3719 8.74224H21.7308C22.4468 8.74224 23.058 8.22456 23.1757 7.51831L24.0913 2.02681C24.2401 1.13364 23.5502 0.321045 22.6463 0.321045H17.1548C16.4387 0.321045 15.8276 0.838721 15.7099 1.54507L14.8008 6.99917C14.8004 7.00112 14.8002 7.00317 14.7998 7.00513C14.7991 7.00903 14.7986 7.01294 14.7979 7.01685C14.7947 7.03472 14.7914 7.05269 14.7889 7.07075L14.1408 10.9591C14.0078 11.7571 14.5469 12.5119 15.345 12.6449ZM18.3957 3.25073H20.917L20.49 5.81255H17.9687L18.3957 3.25073Z" />
    <path
      d="M6.7155 12.6448C7.8528 12.8343 8.33317 11.8488 8.40124 11.4407L8.85095 8.74224H10.8788C12.8223 8.66479 12.8209 5.88921 10.8788 5.81255H9.33923L9.76618 3.25073H12.4478C14.3914 3.17329 14.3899 0.397705 12.4478 0.321045H8.52526C7.80915 0.321045 7.19802 0.838721 7.08034 1.54507L5.5114 10.9591C5.37829 11.757 5.91745 12.5118 6.7155 12.6448Z" />
  </symbol>

  <symbol viewBox="0 0 11 10" id="heart-icon">
    <path
      d="M5.9414 9.18437C5.79903 9.18437 5.66178 9.1328 5.55482 9.03911C5.15084 8.68587 4.76136 8.35391 4.41773 8.0611L4.41598 8.05957C3.40852 7.20104 2.53854 6.45961 1.93323 5.72925C1.25658 4.91276 0.941406 4.1386 0.941406 3.29289C0.941406 2.4712 1.22316 1.71315 1.73471 1.15826C2.25236 0.596816 2.96266 0.287598 3.73498 0.287598C4.31222 0.287598 4.84086 0.470092 5.30617 0.82997C5.54101 1.01163 5.75387 1.23395 5.9414 1.49327C6.129 1.23395 6.34179 1.01163 6.57669 0.82997C7.04201 0.470092 7.57065 0.287598 8.14789 0.287598C8.92014 0.287598 9.63051 0.596816 10.1482 1.15826C10.6597 1.71315 10.9414 2.4712 10.9414 3.29289C10.9414 4.1386 10.6263 4.91276 9.94964 5.72918C9.34433 6.45961 8.47443 7.20096 7.46712 8.05942C7.12288 8.35269 6.73279 8.68518 6.3279 9.03926C6.22101 9.1328 6.08368 9.18437 5.9414 9.18437ZM3.73498 0.873381C3.12822 0.873381 2.57081 1.11554 2.16531 1.5553C1.75378 2.00169 1.52711 2.61875 1.52711 3.29289C1.52711 4.00417 1.79147 4.64031 2.3842 5.35549C2.95709 6.04679 3.80921 6.77295 4.79585 7.61379L4.79768 7.61531C5.1426 7.90927 5.53361 8.24252 5.94056 8.59836C6.34995 8.24184 6.74157 7.90805 7.08718 7.61363C8.07373 6.7728 8.92578 6.04679 9.49867 5.35549C10.0913 4.64031 10.3557 4.00417 10.3557 3.29289C10.3557 2.61875 10.129 2.00169 9.71748 1.5553C9.31206 1.11554 8.75458 0.873381 8.14789 0.873381C7.7034 0.873381 7.29531 1.01468 6.93497 1.2933C6.61385 1.54172 6.39016 1.85574 6.25901 2.07547C6.19156 2.18846 6.07285 2.2559 5.9414 2.2559C5.80994 2.2559 5.69123 2.18846 5.62379 2.07547C5.49271 1.85574 5.26902 1.54172 4.94782 1.2933C4.58749 1.01468 4.17939 0.873381 3.73498 0.873381Z" />
  </symbol>

  <symbol viewBox="0 0 10 11" id="share-icon">
    <path
      d="M7.87109 7.2251C7.29227 7.2251 6.77795 7.50639 6.45746 7.93938L3.69828 6.52932C3.74457 6.37205 3.76953 6.20574 3.76953 6.03369C3.76953 5.80066 3.72385 5.57814 3.64113 5.37445L6.53293 3.63699C6.85559 4.0157 7.33574 4.25635 7.87109 4.25635C8.84035 4.25635 9.62891 3.46779 9.62891 2.49854C9.62891 1.52928 8.84035 0.740723 7.87109 0.740723C6.90184 0.740723 6.11328 1.52928 6.11328 2.49854C6.11328 2.72256 6.15549 2.93688 6.23223 3.13408L3.3332 4.87588C3.01078 4.50834 2.53791 4.27588 2.01172 4.27588C1.04246 4.27588 0.253906 5.06443 0.253906 6.03369C0.253906 7.00295 1.04246 7.7915 2.01172 7.7915C2.60004 7.7915 3.12172 7.50096 3.44096 7.05584L6.19213 8.4618C6.1409 8.62652 6.11328 8.80154 6.11328 8.98291C6.11328 9.95217 6.90184 10.7407 7.87109 10.7407C8.84035 10.7407 9.62891 9.95217 9.62891 8.98291C9.62891 8.01365 8.84035 7.2251 7.87109 7.2251ZM7.87109 1.32666C8.51727 1.32666 9.04297 1.85236 9.04297 2.49854C9.04297 3.14471 8.51727 3.67041 7.87109 3.67041C7.22492 3.67041 6.69922 3.14471 6.69922 2.49854C6.69922 1.85236 7.22492 1.32666 7.87109 1.32666ZM2.01172 7.20557C1.36555 7.20557 0.839844 6.67986 0.839844 6.03369C0.839844 5.38752 1.36555 4.86182 2.01172 4.86182C2.65789 4.86182 3.18359 5.38752 3.18359 6.03369C3.18359 6.67986 2.65789 7.20557 2.01172 7.20557ZM7.87109 10.1548C7.22492 10.1548 6.69922 9.62908 6.69922 8.98291C6.69922 8.33674 7.22492 7.81104 7.87109 7.81104C8.51727 7.81104 9.04297 8.33674 9.04297 8.98291C9.04297 9.62908 8.51727 10.1548 7.87109 10.1548Z" />
  </symbol>

  <symbol viewBox="0 0 25 25" id="sofa-icon">
    <path
      d="M5.18848 12.2644H11.3291C11.869 12.2644 12.3619 12.4685 12.7354 12.8032C13.1089 12.4685 13.6017 12.2644 14.1416 12.2644H20.2822V4.72386C20.2822 4.33737 19.973 4.01576 19.5865 4.0144C19.5807 4.0144 19.8264 4.0144 5.8916 4.0144C5.49148 4.0144 5.18848 4.34244 5.18848 4.72386V12.2644Z" />
    <path
      d="M13.4385 14.3738V16.0144H20.2822C20.2822 14.9758 20.2822 14.7625 20.2822 13.6707H14.1416C13.7539 13.6707 13.4385 13.9861 13.4385 14.3738Z" />
    <path
      d="M22.4625 8.89051C22.0291 8.90401 21.6885 9.26757 21.6885 9.70116C21.6885 9.81245 21.6885 17.1169 21.6885 16.7176C21.6885 17.1059 21.3737 17.4207 20.9854 17.4207C20.4232 17.4207 3.95159 17.4207 4.48535 17.4207C4.09704 17.4207 3.78223 17.1059 3.78223 16.7176C3.78223 16.4581 3.78223 9.63352 3.78223 9.70116C3.78223 9.26757 3.44159 8.90401 3.00818 8.89051C1.75896 8.8516 0.735352 9.85098 0.735352 11.0926V18.3113C0.735352 19.4763 1.67974 20.4207 2.84473 20.4207H3.78223V21.1977C3.78223 21.5763 4.07318 21.9021 4.45137 21.9199C4.85515 21.9389 5.18848 21.6172 5.18848 21.2176V20.4207H20.2822V21.1977C20.2822 21.5763 20.5732 21.9021 20.9514 21.9199C21.3551 21.9389 21.6885 21.6172 21.6885 21.2176V20.4207H22.626C23.791 20.4207 24.7354 19.4763 24.7354 18.3113V11.1322C24.7354 9.83415 23.7037 8.85184 22.4625 8.89051Z" />
    <path d="M12.0322 14.3738C12.0322 13.9861 11.7168 13.6707 11.3291 13.6707H5.18848V16.0144H12.0322V14.3738Z" />
  </symbol>

  <symbol viewBox="0 0 25 25" id="kitchen-icon">
    <path d="M0.76416 24.9675H10.6501V19.2983H0.76416V24.9675ZM2.92632 20.7664H8.53482V22.172H2.92632V20.7664Z" />
    <path d="M0.76416 17.8927H10.6501V12.3173H0.76416V17.8927ZM2.92632 13.8129H8.53482V15.2184H2.92632V13.8129Z" />
    <path
      d="M12.0562 24.9676H24.7533V12.3173H12.0562V24.9676ZM20.4897 13.8129H21.8953V15.2531H20.4897V13.8129ZM17.6785 13.8129H19.0841V15.2531H17.6785V13.8129ZM14.8673 13.8129H16.2729V15.2531H14.8673V13.8129ZM14.8673 16.5106H21.8953V22.1564H14.8673V16.5106Z" />
    <path d="M20.4897 4.20804V0.967529H16.2729V4.21039L12.0562 7.02153V9.50604H24.7533V7.01919L20.4897 4.20804Z" />
  </symbol>

  <symbol viewBox="0 0 25 20" id="restaurant-icon">
    <path
      d="M19.6533 7.87738C19.9342 7.87738 20.1619 7.64969 20.1619 7.3688V5.73734C20.1619 5.45645 19.9342 5.22876 19.6533 5.22876L18.9295 5.23317L16.5542 7.87738H19.6533Z" />
    <path
      d="M4.40849 7.87718H7.532L5.11556 5.22864H4.40849C4.12759 5.22864 3.8999 5.45633 3.8999 5.73722V7.36855C3.8999 7.64949 4.12759 7.87718 4.40849 7.87718Z" />
    <path d="M12.3228 10.5L17.036 5.22876H7.02637L11.817 10.502C11.9528 10.6515 12.1881 10.6505 12.3228 10.5Z" />
    <path
      d="M13.6498 17.9179H12.7742V11.9993C12.5642 12.1206 12.3242 12.1868 12.0766 12.1878C12.0748 12.1878 12.0729 12.1878 12.0711 12.1878C11.8217 12.1878 11.5796 12.1215 11.3679 11.9993V17.9179H10.4126C10.0243 17.9179 9.70947 18.2328 9.70947 18.6211C9.70947 19.0095 10.0243 19.3243 10.4126 19.3243H13.6499C14.0382 19.3243 14.353 19.0095 14.353 18.6211C14.353 18.2328 14.0382 17.9179 13.6498 17.9179Z" />
    <path
      d="M5.96192 9.83363H1.43858V1.49846C1.43858 1.11012 1.12374 0.795288 0.735402 0.795288C0.347062 0.795288 0.0322266 1.11012 0.0322266 1.49846V18.6774C0.0322266 19.0657 0.347062 19.3806 0.735402 19.3806C1.12374 19.3806 1.43858 19.0657 1.43858 18.6774V13.425H6.55128V18.6774C6.55128 19.0657 6.86611 19.3806 7.25445 19.3806C7.64279 19.3806 7.95763 19.0657 7.95763 18.6774V11.8293C7.95763 10.7289 7.06234 9.83363 5.96192 9.83363Z" />
    <path
      d="M23.3289 0.795288C22.9405 0.795288 22.6257 1.11012 22.6257 1.49846V9.83363H18.2071C17.1067 9.83363 16.2114 10.7289 16.2114 11.8293V18.6774C16.2114 19.0657 16.5263 19.3806 16.9146 19.3806C17.3029 19.3806 17.6178 19.0657 17.6178 18.6774V13.4239H22.6257V18.6774C22.6257 19.0657 22.9406 19.3806 23.3289 19.3806C23.7172 19.3806 24.0321 19.0657 24.0321 18.6774V1.49846C24.032 1.11012 23.7172 0.795288 23.3289 0.795288Z" />
  </symbol>

  <symbol viewBox="0 0 25 25" id="workplace-icon">
    <path
      d="M24.0557 7.12329V2.43579C24.0557 1.53115 23.3197 0.795166 22.415 0.795166H13.9775C13.0729 0.795166 12.3369 1.53115 12.3369 2.43579V7.12329C12.3369 8.02793 13.0729 8.76392 13.9775 8.76392H15.8895L15.538 10.1702H11.6026L11.4597 7.02753C11.4084 5.8984 10.4828 5.01392 9.35252 5.01392H5.4776C4.34735 5.01392 3.42176 5.8984 3.37038 7.02753L3.22755 10.1702H0.758789C0.370477 10.1702 0.0556641 10.485 0.0556641 10.8733V23.0608C0.0556641 23.4491 0.370477 23.7639 0.758789 23.7639C1.1471 23.7639 1.46191 23.4491 1.46191 23.0608V14.3889H3.05988C3.11107 14.9678 3.35402 15.5074 3.76329 15.9357C4.17945 16.3712 4.71841 16.6401 5.30571 16.7123V17.9045C5.30571 18.7296 5.91799 19.4141 6.71196 19.5282V21.2179L3.94066 22.0097C3.63874 22.096 3.43066 22.3719 3.43066 22.6858V24.092C3.43066 24.4804 3.74548 24.7952 4.13379 24.7952C4.5221 24.7952 4.83691 24.4804 4.83691 24.092V23.2161L6.71191 22.6804V23.6233C6.71191 24.0116 7.02673 24.3264 7.41504 24.3264C7.80335 24.3264 8.11816 24.0116 8.11816 23.6233V22.6804L9.99316 23.2162V24.092C9.99316 24.4804 10.308 24.7952 10.6963 24.7952C11.0846 24.7952 11.3994 24.4804 11.3994 24.092V22.6858C11.3994 22.3719 11.1913 22.096 10.8895 22.0097L8.11816 21.2179V19.5282C8.91213 19.4141 9.52441 18.7296 9.52441 17.9046V16.7123C10.1117 16.6401 10.6507 16.3712 11.0668 15.9357C11.4761 15.5075 11.7191 14.9678 11.7702 14.389H13.2744V23.0608C13.2744 23.4492 13.5892 23.764 13.9775 23.764C14.3659 23.764 14.6807 23.4492 14.6807 23.0608V20.9515H22.6494V23.0608C22.6494 23.4492 22.9642 23.764 23.3525 23.764C23.7409 23.764 24.0557 23.4492 24.0557 23.0608V10.8733C24.0557 10.485 23.7409 10.1702 23.3525 10.1702H20.8546L20.5031 8.76392H22.415C23.3197 8.76392 24.0557 8.02793 24.0557 7.12329ZM3.09968 12.9827H1.46191V11.5764H3.16362L3.09968 12.9827ZM8.11816 17.9045C8.11816 18.0338 8.01302 18.1389 7.88379 18.1389H6.94629C6.81705 18.1389 6.71191 18.0338 6.71191 17.9045V16.7327H8.11816V17.9045ZM10.0501 14.9641C9.8269 15.1977 9.52601 15.3264 9.2029 15.3264H5.62723C5.30412 15.3264 5.00323 15.1977 4.78001 14.9641C4.55674 14.7305 4.4419 14.4241 4.45657 14.1013L4.77518 7.09132C4.79229 6.71501 5.10082 6.42017 5.47755 6.42017H9.35248C9.72926 6.42017 10.0378 6.71501 10.0549 7.09137L10.3735 14.1013C10.3882 14.4241 10.2734 14.7305 10.0501 14.9641ZM22.6494 19.5452H14.6807V14.3889H22.6494V19.5452ZM22.6494 11.5764V12.9827H11.7304L11.6665 11.5764H22.6494ZM16.9874 10.1702L17.339 8.76392H19.0535L19.4051 10.1702H16.9874ZM13.9775 7.35767C13.8483 7.35767 13.7432 7.25253 13.7432 7.12329V2.43579C13.7432 2.30656 13.8483 2.20142 13.9775 2.20142H22.415C22.5443 2.20142 22.6494 2.30656 22.6494 2.43579V7.12329C22.6494 7.25253 22.5443 7.35767 22.415 7.35767H13.9775Z" />
    <path
      d="M17.2588 17.2014H20.0713C20.4596 17.2014 20.7744 16.8866 20.7744 16.4983C20.7744 16.11 20.4596 15.7952 20.0713 15.7952H17.2588C16.8705 15.7952 16.5557 16.11 16.5557 16.4983C16.5557 16.8866 16.8705 17.2014 17.2588 17.2014Z" />
  </symbol>

  <symbol viewBox="0 0 25 20" id="bed-icon">
    <path
      d="M2.29748 11.2292H22.314C23.139 11.2292 23.8078 10.5605 23.8078 9.73546C23.8078 8.91046 23.139 8.2417 22.314 8.2417H2.29748C1.47248 8.2417 0.803711 8.91046 0.803711 9.73546C0.803664 10.5605 1.47248 11.2292 2.29748 11.2292Z" />
    <path
      d="M13.7994 5.01965C13.3634 5.01965 13.0088 5.37431 13.0088 5.81029V6.83531H19.1278V5.81029C19.1278 5.37431 18.7731 5.01965 18.3372 5.01965H13.7994Z" />
    <path
      d="M4.07668 5.81041C4.07668 4.59902 5.06218 3.61352 6.27357 3.61352H10.8113C11.3878 3.61352 11.9128 3.83702 12.3051 4.20152C12.6974 3.83702 13.2224 3.61352 13.7988 3.61352H18.3366C19.548 3.61352 20.5335 4.59902 20.5335 5.81041V6.83543H22.8158V1.9923C22.8158 1.1673 22.1469 0.498535 21.322 0.498535H3.2882C2.4632 0.498535 1.79443 1.1673 1.79443 1.9923V6.83543H4.07668V5.81041Z" />
    <path
      d="M6.27404 5.01965C5.83805 5.01965 5.4834 5.37431 5.4834 5.81029V6.83531H11.6024V5.81029C11.6024 5.37431 11.2478 5.01965 10.8118 5.01965H6.27404Z" />
    <path d="M0.305664 12.6354V19.1049H1.71191V16.541H22.8994V19.1049H24.3057V12.6354H0.305664Z" />
  </symbol>

  <symbol viewBox="0 0 25 25" id="furniture-icon">
    <path
      d="M24.3838 7.41821H1.13379C0.926331 7.41821 0.758789 7.25067 0.758789 7.04321V5.54248C0.758789 5.33502 0.926331 5.16748 1.13379 5.16748H24.3838C24.5912 5.16748 24.7588 5.33502 24.7588 5.54248V7.04321C24.7588 7.25067 24.5912 7.41821 24.3838 7.41821ZM1.50879 6.66821H24.0088V5.91748H1.50879V6.66821Z" />
    <path
      d="M1.50879 19.05C1.30133 19.05 1.13379 18.8825 1.13379 18.675V7.11011C1.13379 6.90265 1.30133 6.73511 1.50879 6.73511C1.71625 6.73511 1.88379 6.90265 1.88379 7.11011V18.675C1.88379 18.8825 1.71625 19.05 1.50879 19.05Z" />
    <path
      d="M2.63379 19.05C2.42633 19.05 2.25879 18.8825 2.25879 18.675V7.11011C2.25879 6.90265 2.42633 6.73511 2.63379 6.73511C2.84125 6.73511 3.00879 6.90265 3.00879 7.11011V18.675C3.00879 18.8825 2.84125 19.05 2.63379 19.05Z" />
    <path
      d="M22.8838 19.05C22.6763 19.05 22.5088 18.8825 22.5088 18.675V7.11011C22.5088 6.90265 22.6763 6.73511 22.8838 6.73511C23.0912 6.73511 23.2588 6.90265 23.2588 7.11011V18.675C23.2588 18.8825 23.0912 19.05 22.8838 19.05Z" />
    <path
      d="M24.0088 19.05C23.8013 19.05 23.6338 18.8825 23.6338 18.675V7.11011C23.6338 6.90265 23.8013 6.73511 24.0088 6.73511C24.2162 6.73511 24.3838 6.90265 24.3838 7.11011V18.675C24.3838 18.8825 24.2162 19.05 24.0088 19.05Z" />
    <path
      d="M2.63379 19.05H1.50879C1.30133 19.05 1.13379 18.8825 1.13379 18.675C1.13379 18.4676 1.30133 18.3 1.50879 18.3H2.63379C2.84125 18.3 3.00879 18.4676 3.00879 18.675C3.00879 18.8825 2.84125 19.05 2.63379 19.05Z" />
    <path
      d="M24.0088 19.05H22.8838C22.6763 19.05 22.5088 18.8825 22.5088 18.675C22.5088 18.4676 22.6763 18.3 22.8838 18.3H24.0088C24.2162 18.3 24.3838 18.4676 24.3838 18.675C24.3838 18.8825 24.2162 19.05 24.0088 19.05Z" />
    <path
      d="M22.8838 12.6729H2.63379C2.42633 12.6729 2.25879 12.5051 2.25879 12.2979C2.25879 12.0904 2.42633 11.9229 2.63379 11.9229H22.8838C23.0912 11.9229 23.2588 12.0904 23.2588 12.2979C23.2588 12.5051 23.0912 12.6729 22.8838 12.6729Z" />
    <path
      d="M22.8838 13.7986H2.63379C2.42633 13.7986 2.25879 13.6309 2.25879 13.4236C2.25879 13.2161 2.42633 13.0486 2.63379 13.0486H22.8838C23.0912 13.0486 23.2588 13.2161 23.2588 13.4236C23.2588 13.6309 23.0912 13.7986 22.8838 13.7986Z" />
    <path
      d="M4.13281 12.6736C3.92535 12.6736 3.75781 12.5059 3.75781 12.2986C3.75781 11.2646 4.59863 10.4236 5.63245 10.4236C5.83972 10.4236 6.00745 10.5911 6.00745 10.7986C6.00745 11.0059 5.83972 11.1736 5.63245 11.1736C5.01263 11.1736 4.50781 11.6782 4.50781 12.2986C4.50781 12.5059 4.34009 12.6736 4.13281 12.6736Z" />
    <path
      d="M7.88391 12.6736C7.67645 12.6736 7.50891 12.5059 7.50891 12.2986C7.50891 11.6782 7.00409 11.1736 6.38428 11.1736C6.177 11.1736 6.00928 11.0059 6.00928 10.7986C6.00928 10.5911 6.177 10.4236 6.38428 10.4236C7.41809 10.4236 8.25891 11.2646 8.25891 12.2986C8.25891 12.5059 8.09137 12.6736 7.88391 12.6736Z" />
    <path
      d="M4.50781 11.6817C4.30035 11.6817 4.13281 11.514 4.13281 11.3067V9.29858C4.13281 9.09113 4.30035 8.92358 4.50781 8.92358C4.71509 8.92358 4.88281 9.09113 4.88281 9.29858V11.3067C4.88281 11.514 4.71509 11.6817 4.50781 11.6817Z" />
    <path
      d="M7.50732 11.6817C7.29987 11.6817 7.13232 11.514 7.13232 11.3067V9.29858C7.13232 9.09113 7.29987 8.92358 7.50732 8.92358C7.7146 8.92358 7.88232 9.09113 7.88232 9.29858V11.3067C7.88232 11.514 7.7146 11.6817 7.50732 11.6817Z" />
    <path
      d="M5.25879 10.0493C5.05133 10.0493 4.88379 9.88159 4.88379 9.67432V8.54858C4.88379 8.34113 5.05133 8.17358 5.25879 8.17358C5.46625 8.17358 5.63379 8.34113 5.63379 8.54858V9.67432C5.63379 9.88159 5.46625 10.0493 5.25879 10.0493Z" />
    <path
      d="M6.75879 8.92358H5.25879C5.05133 8.92358 4.88379 8.75586 4.88379 8.54858C4.88379 8.34113 5.05133 8.17358 5.25879 8.17358H6.75879C6.96625 8.17358 7.13379 8.34113 7.13379 8.54858C7.13379 8.75586 6.96625 8.92358 6.75879 8.92358Z" />
    <path
      d="M6.75879 10.0493C6.55133 10.0493 6.38379 9.88159 6.38379 9.67432V8.54858C6.38379 8.34113 6.55133 8.17358 6.75879 8.17358C6.96625 8.17358 7.13379 8.34113 7.13379 8.54858V9.67432C7.13379 9.88159 6.96625 10.0493 6.75879 10.0493Z" />
    <path
      d="M5.25854 9.67358H4.50781C4.30035 9.67358 4.13281 9.50586 4.13281 9.29858C4.13281 9.09113 4.30035 8.92358 4.50781 8.92358H5.25854C5.466 8.92358 5.63354 9.09113 5.63354 9.29858C5.63354 9.50586 5.466 9.67358 5.25854 9.67358Z" />
    <path
      d="M7.50732 9.67358H6.75879C6.55133 9.67358 6.38379 9.50586 6.38379 9.29858C6.38379 9.09113 6.55133 8.92358 6.75879 8.92358H7.50732C7.7146 8.92358 7.88232 9.09113 7.88232 9.29858C7.88232 9.50586 7.7146 9.67358 7.50732 9.67358Z" />
    <path
      d="M6.38428 11.1736H5.63281C5.42535 11.1736 5.25781 11.0059 5.25781 10.7986C5.25781 10.5911 5.42535 10.4236 5.63281 10.4236H6.38428C6.59174 10.4236 6.75928 10.5911 6.75928 10.7986C6.75928 11.0059 6.59174 11.1736 6.38428 11.1736Z" />
    <path
      d="M9.00781 12.6736C8.80035 12.6736 8.63281 12.5059 8.63281 12.2986C8.63281 11.2646 9.47363 10.4236 10.5074 10.4236C10.7147 10.4236 10.8824 10.5911 10.8824 10.7986C10.8824 11.0059 10.7147 11.1736 10.5074 11.1736C9.88763 11.1736 9.38281 11.6782 9.38281 12.2986C9.38281 12.5059 9.21509 12.6736 9.00781 12.6736Z" />
    <path
      d="M12.7589 12.6736C12.5515 12.6736 12.3839 12.5059 12.3839 12.2986C12.3839 11.6782 11.8791 11.1736 11.2593 11.1736C11.052 11.1736 10.8843 11.0059 10.8843 10.7986C10.8843 10.5911 11.052 10.4236 11.2593 10.4236C12.2931 10.4236 13.1339 11.2646 13.1339 12.2986C13.1339 12.5059 12.9664 12.6736 12.7589 12.6736Z" />
    <path
      d="M9.38281 11.6817C9.17535 11.6817 9.00781 11.514 9.00781 11.3067V9.29858C9.00781 9.09113 9.17535 8.92358 9.38281 8.92358C9.59009 8.92358 9.75781 9.09113 9.75781 9.29858V11.3067C9.75781 11.514 9.59009 11.6817 9.38281 11.6817Z" />
    <path
      d="M12.3823 11.6817C12.1749 11.6817 12.0073 11.514 12.0073 11.3067V9.29858C12.0073 9.09113 12.1749 8.92358 12.3823 8.92358C12.5896 8.92358 12.7573 9.09113 12.7573 9.29858V11.3067C12.7573 11.514 12.5896 11.6817 12.3823 11.6817Z" />
    <path
      d="M10.1338 10.0493C9.92633 10.0493 9.75879 9.88159 9.75879 9.67432V8.54858C9.75879 8.34113 9.92633 8.17358 10.1338 8.17358C10.3412 8.17358 10.5088 8.34113 10.5088 8.54858V9.67432C10.5088 9.88159 10.3412 10.0493 10.1338 10.0493Z" />
    <path
      d="M11.6338 8.92358H10.1338C9.92633 8.92358 9.75879 8.75586 9.75879 8.54858C9.75879 8.34113 9.92633 8.17358 10.1338 8.17358H11.6338C11.8412 8.17358 12.0088 8.34113 12.0088 8.54858C12.0088 8.75586 11.8412 8.92358 11.6338 8.92358Z" />
    <path
      d="M11.6338 10.0493C11.4263 10.0493 11.2588 9.88159 11.2588 9.67432V8.54858C11.2588 8.34113 11.4263 8.17358 11.6338 8.17358C11.8412 8.17358 12.0088 8.34113 12.0088 8.54858V9.67432C12.0088 9.88159 11.8412 10.0493 11.6338 10.0493Z" />
    <path
      d="M10.1335 9.67358H9.38281C9.17535 9.67358 9.00781 9.50586 9.00781 9.29858C9.00781 9.09113 9.17535 8.92358 9.38281 8.92358H10.1335C10.341 8.92358 10.5085 9.09113 10.5085 9.29858C10.5085 9.50586 10.341 9.67358 10.1335 9.67358Z" />
    <path
      d="M12.3823 9.67358H11.6338C11.4263 9.67358 11.2588 9.50586 11.2588 9.29858C11.2588 9.09113 11.4263 8.92358 11.6338 8.92358H12.3823C12.5896 8.92358 12.7573 9.09113 12.7573 9.29858C12.7573 9.50586 12.5896 9.67358 12.3823 9.67358Z" />
    <path
      d="M11.2593 11.1736H10.5078C10.3004 11.1736 10.1328 11.0059 10.1328 10.7986C10.1328 10.5911 10.3004 10.4236 10.5078 10.4236H11.2593C11.4667 10.4236 11.6343 10.5911 11.6343 10.7986C11.6343 11.0059 11.4667 11.1736 11.2593 11.1736Z" />
    <path
      d="M12.7666 18.2993C12.5591 18.2993 12.3916 18.1316 12.3916 17.9243C12.3916 17.3036 12.8968 16.7986 13.5173 16.7986C13.7248 16.7986 13.8923 16.9661 13.8923 17.1736C13.8923 17.3809 13.7248 17.5486 13.5173 17.5486C13.3101 17.5486 13.1416 17.7169 13.1416 17.9243C13.1416 18.1316 12.9737 18.2993 12.7666 18.2993Z" />
    <path
      d="M16.5176 18.2993C16.3103 18.2993 16.1426 18.1316 16.1426 17.9243C16.1426 17.7172 15.9747 17.5493 15.7676 17.5493C15.5603 17.5493 15.3926 17.3816 15.3926 17.1743C15.3926 16.9669 15.5603 16.7993 15.7676 16.7993C16.3879 16.7993 16.8926 17.304 16.8926 17.9243C16.8926 18.1316 16.725 18.2993 16.5176 18.2993Z" />
    <path
      d="M16.5177 19.05H12.7666C12.5591 19.05 12.3916 18.8825 12.3916 18.675C12.3916 18.4676 12.5591 18.3 12.7666 18.3H16.5181C16.7255 18.3 16.8931 18.4676 16.8931 18.675C16.8931 18.8825 16.7252 19.05 16.5177 19.05Z" />
    <path
      d="M15.7976 17.5486H13.4868C13.2795 17.5486 13.1118 17.3809 13.1118 17.1736C13.1118 16.9661 13.2795 16.7986 13.4868 16.7986H15.7976C16.0051 16.7986 16.1726 16.9661 16.1726 17.1736C16.1726 17.3809 16.0051 17.5486 15.7976 17.5486Z" />
    <path
      d="M13.5166 17.5486C13.3091 17.5486 13.1416 17.3809 13.1416 17.1736V14.9243C13.1416 14.7169 13.3091 14.5493 13.5166 14.5493C13.7241 14.5493 13.8916 14.7169 13.8916 14.9243V17.1736C13.8916 17.3809 13.7241 17.5486 13.5166 17.5486Z" />
    <path
      d="M15.7681 17.5493C15.5608 17.5493 15.3931 17.3816 15.3931 17.1743V14.9243C15.3931 14.7169 15.5608 14.5493 15.7681 14.5493C15.9755 14.5493 16.1431 14.7169 16.1431 14.9243V17.1743C16.1431 17.3816 15.9755 17.5493 15.7681 17.5493Z" />
    <path
      d="M12.7666 19.05C12.5591 19.05 12.3916 18.8825 12.3916 18.675V17.9243C12.3916 17.7169 12.5591 17.5493 12.7666 17.5493C12.9741 17.5493 13.1416 17.7169 13.1416 17.9243V18.675C13.1416 18.8825 12.9737 19.05 12.7666 19.05Z" />
    <path
      d="M16.5176 19.05C16.3103 19.05 16.1426 18.8825 16.1426 18.675V17.9243C16.1426 17.7169 16.3103 17.5493 16.5176 17.5493C16.725 17.5493 16.8926 17.7169 16.8926 17.9243V18.675C16.8926 18.8825 16.725 19.05 16.5176 19.05Z" />
    <path
      d="M15.7681 15.2993H13.5166C13.3091 15.2993 13.1416 15.1316 13.1416 14.9243C13.1416 14.7169 13.3091 14.5493 13.5166 14.5493H15.7681C15.9755 14.5493 16.1431 14.7169 16.1431 14.9243C16.1431 15.1316 15.9755 15.2993 15.7681 15.2993Z" />
    <path
      d="M16.1427 16.4243H13.1416C12.9341 16.4243 12.7666 16.2566 12.7666 16.0493C12.7666 15.8419 12.9341 15.6743 13.1416 15.6743H16.1427C16.3502 15.6743 16.5177 15.8419 16.5177 16.0493C16.5177 16.2566 16.3502 16.4243 16.1427 16.4243Z" />
    <path
      d="M17.6416 18.2993C17.4341 18.2993 17.2666 18.1316 17.2666 17.9243C17.2666 17.3036 17.7718 16.7986 18.3923 16.7986C18.5998 16.7986 18.7673 16.9661 18.7673 17.1736C18.7673 17.3809 18.5998 17.5486 18.3923 17.5486C18.1851 17.5486 18.0166 17.7169 18.0166 17.9243C18.0166 18.1316 17.8487 18.2993 17.6416 18.2993Z" />
    <path
      d="M21.3926 18.2993C21.1853 18.2993 21.0176 18.1316 21.0176 17.9243C21.0176 17.7172 20.8497 17.5493 20.6426 17.5493C20.4353 17.5493 20.2676 17.3816 20.2676 17.1743C20.2676 16.9669 20.4353 16.7993 20.6426 16.7993C21.2629 16.7993 21.7676 17.304 21.7676 17.9243C21.7676 18.1316 21.6 18.2993 21.3926 18.2993Z" />
    <path
      d="M21.3927 19.05H17.6416C17.4341 19.05 17.2666 18.8825 17.2666 18.675C17.2666 18.4676 17.4341 18.3 17.6416 18.3H21.3931C21.6005 18.3 21.7681 18.4676 21.7681 18.675C21.7681 18.8825 21.6002 19.05 21.3927 19.05Z" />
    <path
      d="M20.6726 17.5486H18.3618C18.1545 17.5486 17.9868 17.3809 17.9868 17.1736C17.9868 16.9661 18.1545 16.7986 18.3618 16.7986H20.6726C20.8801 16.7986 21.0476 16.9661 21.0476 17.1736C21.0476 17.3809 20.8801 17.5486 20.6726 17.5486Z" />
    <path
      d="M18.3916 17.5486C18.1841 17.5486 18.0166 17.3809 18.0166 17.1736V14.9243C18.0166 14.7169 18.1841 14.5493 18.3916 14.5493C18.5991 14.5493 18.7666 14.7169 18.7666 14.9243V17.1736C18.7666 17.3809 18.5991 17.5486 18.3916 17.5486Z" />
    <path
      d="M20.6431 17.5493C20.4358 17.5493 20.2681 17.3816 20.2681 17.1743V14.9243C20.2681 14.7169 20.4358 14.5493 20.6431 14.5493C20.8505 14.5493 21.0181 14.7169 21.0181 14.9243V17.1743C21.0181 17.3816 20.8505 17.5493 20.6431 17.5493Z" />
    <path
      d="M17.6416 19.05C17.4341 19.05 17.2666 18.8825 17.2666 18.675V17.9243C17.2666 17.7169 17.4341 17.5493 17.6416 17.5493C17.8491 17.5493 18.0166 17.7169 18.0166 17.9243V18.675C18.0166 18.8825 17.8487 19.05 17.6416 19.05Z" />
    <path
      d="M21.3926 19.05C21.1853 19.05 21.0176 18.8825 21.0176 18.675V17.9243C21.0176 17.7169 21.1853 17.5493 21.3926 17.5493C21.6 17.5493 21.7676 17.7169 21.7676 17.9243V18.675C21.7676 18.8825 21.6 19.05 21.3926 19.05Z" />
    <path
      d="M20.6431 15.2993H18.3916C18.1841 15.2993 18.0166 15.1316 18.0166 14.9243C18.0166 14.7169 18.1841 14.5493 18.3916 14.5493H20.6431C20.8505 14.5493 21.0181 14.7169 21.0181 14.9243C21.0181 15.1316 20.8505 15.2993 20.6431 15.2993Z" />
    <path
      d="M21.0177 16.4243H18.0166C17.8091 16.4243 17.6416 16.2566 17.6416 16.0493C17.6416 15.8419 17.8091 15.6743 18.0166 15.6743H21.0177C21.2252 15.6743 21.3927 15.8419 21.3927 16.0493C21.3927 16.2566 21.2252 16.4243 21.0177 16.4243Z" />

  </symbol>

  <symbol viewBox="0 0 17 17" id="star-icon">
    <path
      d="M16.1897 6.58969C16.085 6.2657 15.7976 6.0356 15.4577 6.00496L10.8396 5.58563L9.01353 1.31148C8.87888 0.998235 8.57223 0.795471 8.23153 0.795471C7.89082 0.795471 7.58417 0.998235 7.44952 1.31221L5.62343 5.58563L1.00466 6.00496C0.665292 6.03633 0.378664 6.2657 0.273314 6.58969C0.167965 6.91367 0.265258 7.26903 0.521978 7.49303L4.01267 10.5544L2.98335 15.0886C2.90803 15.4219 3.03742 15.7666 3.31404 15.9665C3.46273 16.0739 3.63668 16.1286 3.8121 16.1286C3.96335 16.1286 4.11338 16.0879 4.24803 16.0073L8.23153 13.6265L12.2136 16.0073C12.505 16.1826 12.8723 16.1666 13.1483 15.9665C13.425 15.7659 13.5543 15.4212 13.479 15.0886L12.4497 10.5544L15.9403 7.49364C16.1971 7.26903 16.2951 6.91428 16.1897 6.58969Z" />
  </symbol>

  <symbol viewBox="0 0 17 17" id="email-icon">
    <path d="M11.1313 8.28464L16.5253 11.6946V4.73064L11.1313 8.28464Z" />
    <path d="M0.525391 4.73064V11.6946L5.91939 8.28464L0.525391 4.73064Z" />
    <path
      d="M15.5257 2.70264H1.52566C1.02666 2.70264 0.630664 3.07464 0.555664 3.55364L8.52566 8.80464L16.4957 3.55364C16.4207 3.07464 16.0247 2.70264 15.5257 2.70264Z" />
    <path
      d="M10.2156 8.88873L8.80062 9.82073C8.71662 9.87573 8.62162 9.90273 8.52562 9.90273C8.42962 9.90273 8.33462 9.87573 8.25062 9.82073L6.83562 8.88773L0.557617 12.8587C0.634617 13.3337 1.02862 13.7027 1.52562 13.7027H15.5256C16.0226 13.7027 16.4166 13.3337 16.4936 12.8587L10.2156 8.88873Z" />
  </symbol>

  <symbol viewBox="0 0 20 21" id="facebook-icon">
    <path
      d="M9.99902 20.1719C15.5219 20.1719 19.999 15.6947 19.999 10.1719C19.999 4.64903 15.5219 0.171875 9.99902 0.171875C4.47618 0.171875 -0.000976562 4.64903 -0.000976562 10.1719C-0.000976562 15.6947 4.47618 20.1719 9.99902 20.1719Z" />
    <path
      d="M12.5129 10.5634H10.7285V17.1005H8.02504V10.5634H6.73926V8.26595H8.02504V6.77927C8.02504 5.71613 8.53005 4.05136 10.7526 4.05136L12.7552 4.05974V6.28976H11.3022C11.0638 6.28976 10.7287 6.40884 10.7287 6.91599V8.26809H12.7491L12.5129 10.5634Z"
      fill="#305F64" />
  </symbol>

  <symbol viewBox="0 0 20 21" id="twitter-icon">
    <path
      d="M9.99991 20.1717C15.5227 20.1717 19.9998 15.6946 19.9998 10.1718C19.9998 4.64899 15.5227 0.171875 9.99991 0.171875C4.47711 0.171875 0 4.64899 0 10.1718C0 15.6946 4.47711 20.1717 9.99991 20.1717Z" />
    <path
      d="M16.1242 7.35847C15.6957 7.54849 15.2347 7.67701 14.7513 7.73441C15.2449 7.43868 15.6237 6.97075 15.8025 6.41227C15.3406 6.68625 14.8288 6.88501 14.2846 6.99215C13.8486 6.52778 13.2273 6.23758 12.5394 6.23758C11.2196 6.23758 10.1492 7.30802 10.1492 8.62784C10.1492 8.81519 10.1704 8.99755 10.2114 9.1726C8.22489 9.07295 6.46353 8.12141 5.28453 6.67485C5.07882 7.0278 4.96081 7.43868 4.96081 7.87666C4.96081 8.70574 5.3831 9.43766 6.02412 9.8662C5.63249 9.8539 5.26367 9.74641 4.94156 9.5669C4.94138 9.57706 4.94138 9.58722 4.94138 9.59721C4.94138 10.7553 5.76565 11.7213 6.8589 11.9408C6.65854 11.9957 6.44695 12.0247 6.22929 12.0247C6.07492 12.0247 5.92537 12.0099 5.77955 11.9821C6.08366 12.9315 6.96621 13.6226 8.01241 13.6421C7.1942 14.2832 6.1637 14.6653 5.04352 14.6653C4.851 14.6653 4.66027 14.654 4.47363 14.6317C5.53088 15.3102 6.7876 15.7057 8.13737 15.7057C12.5339 15.7057 14.9383 12.0636 14.9383 8.90467C14.9383 8.80111 14.9359 8.69789 14.9313 8.59557C15.3987 8.25867 15.8039 7.8378 16.1242 7.35847Z"
      fill="#305F64" />
  </symbol>

  <symbol viewBox="0 0 20 21" id="instagram-icon">
    <path
      d="M11.9131 10.1719C11.9131 11.229 11.0562 12.0859 9.99902 12.0859C8.94189 12.0859 8.08496 11.229 8.08496 10.1719C8.08496 9.11475 8.94189 8.25781 9.99902 8.25781C11.0562 8.25781 11.9131 9.11475 11.9131 10.1719Z" />
    <path
      d="M14.4755 6.78534C14.3835 6.53601 14.2367 6.31033 14.0459 6.12509C13.8607 5.93436 13.6352 5.78757 13.3857 5.69556C13.1833 5.61697 12.8794 5.52344 12.3195 5.49796C11.7139 5.47034 11.5323 5.46439 9.99915 5.46439C8.46579 5.46439 8.28421 5.47018 7.67874 5.4978C7.1189 5.52344 6.81479 5.61697 6.61261 5.69556C6.36313 5.78757 6.13745 5.93436 5.95236 6.12509C5.76163 6.31033 5.61484 6.53586 5.52267 6.78534C5.44409 6.98767 5.35056 7.29178 5.32507 7.85162C5.29745 8.45709 5.2915 8.63867 5.2915 10.172C5.2915 11.7052 5.29745 11.8868 5.32507 12.4924C5.35056 13.0523 5.44409 13.3562 5.52267 13.5586C5.61484 13.808 5.76147 14.0336 5.95221 14.2188C6.13745 14.4095 6.36298 14.5563 6.61246 14.6483C6.81479 14.7271 7.1189 14.8206 7.67874 14.8461C8.28421 14.8737 8.46564 14.8795 9.99899 14.8795C11.5325 14.8795 11.7141 14.8737 12.3194 14.8461C12.8792 14.8206 13.1833 14.7271 13.3857 14.6483C13.8865 14.4552 14.2823 14.0594 14.4755 13.5586C14.554 13.3562 14.6476 13.0523 14.6732 12.4924C14.7008 11.8868 14.7066 11.7052 14.7066 10.172C14.7066 8.63867 14.7008 8.45709 14.6732 7.85162C14.6477 7.29178 14.5542 6.98767 14.4755 6.78534ZM9.99915 13.1205C8.37057 13.1205 7.05038 11.8004 7.05038 10.1719C7.05038 8.5433 8.37057 7.22327 9.99915 7.22327C11.6276 7.22327 12.9478 8.5433 12.9478 10.1719C12.9478 11.8004 11.6276 13.1205 9.99915 13.1205ZM13.0643 7.79578C12.6838 7.79578 12.3752 7.48724 12.3752 7.10669C12.3752 6.72614 12.6838 6.4176 13.0643 6.4176C13.4449 6.4176 13.7534 6.72614 13.7534 7.10669C13.7533 7.48724 13.4449 7.79578 13.0643 7.79578Z" />
    <path
      d="M9.99902 0.171875C4.47702 0.171875 -0.000976562 4.64987 -0.000976562 10.1719C-0.000976562 15.6939 4.47702 20.1719 9.99902 20.1719C15.521 20.1719 19.999 15.6939 19.999 10.1719C19.999 4.64987 15.521 0.171875 9.99902 0.171875ZM15.7066 12.5393C15.6788 13.1505 15.5816 13.5679 15.4397 13.9332C15.1414 14.7045 14.5316 15.3142 13.7603 15.6125C13.3952 15.7545 12.9777 15.8515 12.3666 15.8794C11.7542 15.9073 11.5586 15.9141 9.99918 15.9141C8.43958 15.9141 8.24411 15.9073 7.63162 15.8794C7.02051 15.8515 6.60303 15.7545 6.23788 15.6125C5.85458 15.4684 5.5076 15.2424 5.22073 14.9502C4.92868 14.6635 4.7027 14.3163 4.5585 13.9332C4.4166 13.568 4.3194 13.1505 4.29163 12.5394C4.2634 11.9269 4.25684 11.7313 4.25684 10.1719C4.25684 8.61243 4.2634 8.41681 4.29147 7.80447C4.31924 7.19321 4.41629 6.77588 4.5582 6.41058C4.70239 6.02744 4.92853 5.6803 5.22073 5.39359C5.50745 5.10138 5.85458 4.8754 6.23773 4.7312C6.60303 4.58929 7.02036 4.49225 7.63162 4.46432C8.24396 4.4364 8.43958 4.42969 9.99902 4.42969C11.5585 4.42969 11.7541 4.4364 12.3664 4.46448C12.9777 4.49225 13.395 4.58929 13.7603 4.73105C14.1435 4.87524 14.4906 5.10138 14.7775 5.39359C15.0695 5.68045 15.2957 6.02744 15.4397 6.41058C15.5818 6.77588 15.6788 7.19321 15.7067 7.80447C15.7346 8.41681 15.7412 8.61243 15.7412 10.1719C15.7412 11.7313 15.7346 11.9269 15.7066 12.5393Z" />
  </symbol>

  <symbol viewBox="0 0 20 21" id="youtube-icon">
    <path
      d="M9.99904 20.1719C15.5219 20.1719 19.9991 15.6948 19.9991 10.1719C19.9991 4.64904 15.5219 0.171875 9.99904 0.171875C4.47619 0.171875 -0.000976562 4.64904 -0.000976562 10.1719C-0.000976562 15.6948 4.47619 20.1719 9.99904 20.1719Z" />
    <path
      d="M17.0698 3.09979C20.9751 7.00538 20.9754 13.3373 17.0698 17.2429C13.1646 21.1481 6.83235 21.1483 2.92676 17.2429L17.0698 3.09979Z" />
    <path
      d="M19.7984 12.1744L14.849 7.22522L9.01181 7.88983L5.48096 13.3561L12.0786 19.9536C15.9577 19.133 19.0073 16.0647 19.7984 12.1744Z" />
    <path
      d="M15.2323 8.24183C15.2323 7.40353 14.5532 6.72406 13.7154 6.72406H6.59822C5.76054 6.72406 5.08154 7.40369 5.08154 8.24183V12.3118C5.08154 13.1501 5.76067 13.8296 6.59822 13.8296H13.7152C14.5533 13.8296 15.2322 13.1499 15.2322 12.3118V8.24183H15.2323ZM9.14154 11.9938V8.17111L12.0405 10.0825L9.14154 11.9938Z"
      fill="#305F64" />
  </symbol>

  <symbol viewBox="0 0 16 17" id="arrow-right-icon">
    <path
      d="M15.7811 8.18683L11.0198 3.42549C10.7293 3.13499 10.2582 3.13499 9.96766 3.42549C9.6771 3.71605 9.6771 4.18706 9.96766 4.47762L13.459 7.96893H0.742983C0.332139 7.96893 -0.000976562 8.30205 -0.000976562 8.71289C-0.000976562 9.12368 0.332139 9.45685 0.742983 9.45685H13.459L9.96778 12.9482C9.67722 13.2387 9.67722 13.7097 9.96778 14.0003C10.113 14.1455 10.3035 14.2182 10.4938 14.2182C10.6842 14.2182 10.8746 14.1455 11.0199 14.0003L15.7811 9.23896C16.0717 8.9484 16.0717 8.47739 15.7811 8.18683Z" />
  </symbol>

</svg>