<svg width="99" height="35" viewBox="0 0 99 35" fill="none" xmlns="http://www.w3.org/2000/svg">
<g clip-path="url(#clip0_6223_2215)">
<path d="M6.5749 24.5885C6.98607 25.6869 7.55532 26.626 8.28277 27.4059C9.01021 28.1859 9.87201 28.7828 10.8682 29.1967C11.8645 29.6106 12.9476 29.8175 14.1178 29.8175C15.2565 29.8175 16.3238 29.6026 17.3201 29.1727C18.3163 28.7429 19.186 28.1381 19.9292 27.3582C20.6724 26.5782 21.2496 25.647 21.6608 24.5646C22.072 23.4822 22.2775 22.2726 22.2775 20.9354V0.306152H27.2586V33.7331H22.3249V30.6292C21.218 31.807 19.9134 32.7143 18.4111 33.3512C16.9088 33.9878 15.2881 34.3062 13.5486 34.3062C11.7774 34.3062 10.125 33.9957 8.59106 33.3749C7.05724 32.7542 5.72884 31.8708 4.60619 30.7247C3.48353 29.5786 2.5979 28.2019 1.9496 26.5941C1.3012 24.9864 0.977051 23.1958 0.977051 21.2219V0.306152H5.9582V20.9354C5.9582 22.2726 6.16373 23.4901 6.5749 24.5885Z" fill="#154444"/>
<path d="M35.8446 0.306152V12.4831C36.9515 11.3689 38.2325 10.4855 39.6872 9.83286C41.142 9.18017 42.7234 8.85389 44.4312 8.85389C46.2023 8.85389 47.8625 9.1881 49.4123 9.85663C50.962 10.5252 52.306 11.4325 53.4446 12.5786C54.5832 13.7247 55.4846 15.0777 56.1488 16.6376C56.8129 18.1976 57.1449 19.853 57.1449 21.604C57.1449 23.3548 56.8129 25.0023 56.1488 26.5462C55.4846 28.0903 54.5832 29.4354 53.4446 30.5813C52.306 31.7274 50.962 32.6348 49.4123 33.3033C47.8625 33.9718 46.2022 34.306 44.4312 34.306C42.7233 34.306 41.1341 33.9798 39.6635 33.3271C38.1929 32.6745 36.9041 31.791 35.7971 30.6768V33.733H31.0532V0.306152H35.8446ZM36.3901 24.8988C36.817 25.9177 37.4101 26.809 38.1692 27.5731C38.9282 28.3371 39.8137 28.9421 40.8257 29.3877C41.8379 29.8334 42.9289 30.0563 44.0991 30.0563C45.2377 30.0563 46.313 29.8334 47.325 29.3877C48.337 28.9421 49.2145 28.3372 49.9579 27.5731C50.7011 26.8091 51.2941 25.9177 51.7369 24.8988C52.1796 23.8801 52.401 22.7819 52.401 21.604C52.401 20.426 52.1796 19.3197 51.7369 18.2851C51.2941 17.2504 50.7011 16.3511 49.9579 15.5871C49.2146 14.8231 48.3371 14.2261 47.325 13.7964C46.3129 13.3667 45.2376 13.1516 44.0991 13.1516C42.9606 13.1516 41.8853 13.3666 40.8733 13.7964C39.8613 14.2262 38.9757 14.8231 38.2166 15.5871C37.4577 16.3511 36.8567 17.2504 36.4139 18.2851C35.9712 19.3197 35.7498 20.426 35.7498 21.604C35.7497 22.7819 35.9632 23.8801 36.3901 24.8988Z" fill="#154444"/>
<path d="M59.849 16.6854C60.4815 15.1573 61.3513 13.8123 62.4581 12.6504C63.565 11.4884 64.8776 10.5731 66.3957 9.9046C67.9138 9.23607 69.5583 8.90186 71.3294 8.90186C73.0689 8.90186 74.6818 9.22022 76.1683 9.85684C77.6547 10.4936 78.9355 11.377 80.0109 12.5072C81.0862 13.6373 81.9244 14.9744 82.5251 16.5184C83.1261 18.0624 83.4265 19.7417 83.4265 21.5564V23.1323H63.7391C63.8973 24.1192 64.2136 25.0344 64.6879 25.8779C65.1624 26.7215 65.7553 27.4538 66.4669 28.0746C67.1785 28.6954 67.9849 29.181 68.8863 29.531C69.7877 29.8812 70.7443 30.0564 71.7564 30.0564C74.6345 30.0564 76.9591 28.8625 78.7301 26.4748L82.1932 29.0534C80.9914 30.677 79.505 31.9505 77.7339 32.8737C75.9628 33.7969 73.9703 34.2585 71.7565 34.2585C69.9538 34.2585 68.2697 33.94 66.7042 33.3034C65.1387 32.6668 63.7788 31.7753 62.6244 30.6292C61.4701 29.483 60.5608 28.1381 59.8967 26.5941C59.2325 25.0502 58.9004 23.3707 58.9004 21.5562C58.9002 19.8372 59.2166 18.2135 59.849 16.6854ZM66.5143 14.7991C65.1702 15.9293 64.2768 17.4335 63.834 19.3118H78.5878C78.1766 17.4335 77.2989 15.9293 75.9548 14.7991C74.6107 13.6691 73.0373 13.104 71.2346 13.104C69.4318 13.104 67.8584 13.6691 66.5143 14.7991Z" fill="#154444"/>
<path d="M92.3921 15.3482C91.3801 16.4624 90.874 17.9745 90.874 19.8847V33.7331H86.0825V9.37913H90.8264V12.3876C91.4274 11.4007 92.2102 10.6207 93.1747 10.0477C94.1393 9.47455 95.2858 9.18799 96.6142 9.18799H98.2745V13.6768H96.2821C94.7008 13.6769 93.4041 14.2339 92.3921 15.3482Z" fill="#154444"/>
</g>
<defs>
<clipPath id="clip0_6223_2215">
<rect width="97.2975" height="34" fill="white" transform="translate(0.977051 0.306152)"/>
</clipPath>
</defs>
</svg>
