<svg width="91" height="33" viewBox="0 0 91 33" fill="none" xmlns="http://www.w3.org/2000/svg">
<g clip-path="url(#clip0_6223_2238)">
<path d="M33.5972 30.0661L38.1483 4.46606H45.2594L40.8505 30.0661H33.5972Z" fill="#3C58BF"/>
<path d="M33.5972 30.0661L39.4283 4.46606H45.2594L40.8505 30.0661H33.5972Z" fill="#293688"/>
<path d="M66.5925 4.75057C65.1703 4.18168 62.8947 3.61279 60.0503 3.61279C52.9392 3.61279 47.8192 7.16835 47.8192 12.2883C47.8192 16.1283 51.3747 18.1195 54.2192 19.3995C57.0636 20.6795 57.917 21.5328 57.917 22.6706C57.917 24.3772 55.6414 25.2306 53.6503 25.2306C50.8059 25.2306 49.2414 24.8039 46.8236 23.8083L45.8281 23.3817L44.8325 29.2128C46.5392 29.9239 49.6681 30.635 52.9392 30.635C60.477 30.635 65.4547 27.0795 65.4547 21.675C65.4547 18.6883 63.6059 16.4128 59.3392 14.5639C56.7792 13.2839 55.2147 12.5728 55.2147 11.2928C55.2147 10.155 56.4947 9.01724 59.3392 9.01724C61.757 9.01724 63.4636 9.4439 64.7436 10.0128L65.4547 10.2972L66.5925 4.75057Z" fill="#3C58BF"/>
<path d="M66.5925 4.75057C65.1703 4.18168 62.8947 3.61279 60.0503 3.61279C52.9392 3.61279 49.0992 7.16835 49.0992 12.2883C49.0992 16.1283 51.3747 18.1195 54.2192 19.3995C57.0636 20.6795 57.917 21.5328 57.917 22.6706C57.917 24.3772 55.6414 25.2306 53.6503 25.2306C50.8059 25.2306 49.2414 24.8039 46.8236 23.8083L45.8281 23.3817L44.8325 29.2128C46.5392 29.9239 49.6681 30.635 52.9392 30.635C60.477 30.635 65.4547 27.0795 65.4547 21.675C65.4547 18.6883 63.6059 16.4128 59.3392 14.5639C56.7792 13.2839 55.2147 12.5728 55.2147 11.2928C55.2147 10.155 56.4947 9.01724 59.3392 9.01724C61.757 9.01724 63.4636 9.4439 64.7436 10.0128L65.4547 10.2972L66.5925 4.75057Z" fill="#293688"/>
<path d="M78.8239 4.46606C77.1172 4.46606 75.8372 4.60829 75.1261 6.31496L64.4595 30.0661H72.1395L73.5617 25.7994H82.6639L83.5172 30.0661H90.3439L84.3706 4.46606H78.8239ZM75.5528 21.5327C75.9795 20.2527 78.3972 13.995 78.3972 13.995C78.3972 13.995 78.9661 12.4305 79.3928 11.435L79.8195 13.8527C79.8195 13.8527 81.2417 20.2527 81.5261 21.675H75.5528V21.5327Z" fill="#3C58BF"/>
<path d="M80.5306 4.46606C78.8239 4.46606 77.5439 4.60829 76.8328 6.31496L64.4595 30.0661H72.1395L73.5617 25.7994H82.6639L83.5172 30.0661H90.3439L84.3706 4.46606H80.5306ZM75.5528 21.5327C76.1217 20.1105 78.3972 13.995 78.3972 13.995C78.3972 13.995 78.9661 12.4305 79.3928 11.435L79.8195 13.8527C79.8195 13.8527 81.2417 20.2527 81.5261 21.675H75.5528V21.5327Z" fill="#293688"/>
<path d="M20.5124 22.3862L19.8013 18.6884C18.5213 14.4217 14.3968 9.7284 9.8457 7.45284L16.2457 30.2084H23.9257L35.4457 4.6084H27.7657L20.5124 22.3862Z" fill="#3C58BF"/>
<path d="M20.5124 22.3862L19.8013 18.6884C18.5213 14.4217 14.3968 9.7284 9.8457 7.45284L16.2457 30.2084H23.9257L35.4457 4.6084H29.1879L20.5124 22.3862Z" fill="#293688"/>
<path d="M0.743652 4.46606L2.02365 4.75051C11.1259 6.88384 17.3836 12.2883 19.8014 18.6883L17.2414 6.5994C16.8148 4.89273 15.5348 4.46606 13.9703 4.46606H0.743652Z" fill="#FFBC00"/>
<path d="M0.743652 4.46606C9.84587 6.5994 17.3836 12.1461 19.8014 18.5461L17.3837 8.44829C16.957 6.74162 15.5348 5.74607 13.9703 5.74607L0.743652 4.46606Z" fill="#F7981D"/>
<path d="M0.743652 4.46606C9.84587 6.5994 17.3836 12.1461 19.8014 18.5461L18.0948 12.9994C17.6681 11.2927 17.0992 9.58606 15.1081 8.87495L0.743652 4.46606Z" fill="#ED7C00"/>
<path d="M27.6233 21.5328L22.7878 16.6972L20.5122 22.1017L19.9433 18.5461C18.6633 14.2794 14.5389 9.5861 9.98779 7.31055L16.3878 30.0661H24.0678L27.6233 21.5328Z" fill="#051244"/>
<path d="M40.8495 30.0664L34.734 23.8086L33.5962 30.0664H40.8495Z" fill="#051244"/>
<path d="M57.2059 21.2483C57.7747 21.8172 58.0592 22.2438 57.917 22.8127C57.917 24.5194 55.6414 25.3727 53.6503 25.3727C50.8059 25.3727 49.2414 24.9461 46.8236 23.9505L45.8281 23.5238L44.8325 29.355C46.5392 30.0661 49.6681 30.7772 52.9392 30.7772C57.4903 30.7772 61.1881 29.4972 63.3214 27.2216L57.2059 21.2483Z" fill="#051244"/>
<path d="M65.4546 30.0659H72.139L73.5613 25.7993H82.6635L83.5168 30.0659H90.3435L87.9257 19.6837L79.3924 11.4348L79.819 13.7104C79.819 13.7104 81.2413 20.1104 81.5257 21.5326H75.5524C76.1213 20.1104 78.3968 13.9948 78.3968 13.9948C78.3968 13.9948 78.9657 12.4304 79.3924 11.4348" fill="#051244"/>
</g>
<defs>
<clipPath id="clip0_6223_2238">
<rect width="89.6" height="32" fill="white" transform="translate(0.743652 0.306152)"/>
</clipPath>
</defs>
</svg>
